<svg width="28" height="29" viewBox="0 0 28 29" fill="none" xmlns="http://www.w3.org/2000/svg"><path d="M21.8924 22.0529C21.1458 22.7529 21.1458 23.9196 21.8924 24.6663 22.2658 25.0396 22.7324 25.2263 23.1991 25.2263 23.6657 25.2263 24.1324 25.0396 24.5057 24.6663 25.2524 23.9663 25.2524 22.7996 24.5057 22.0529 23.8058 21.3063 22.6391 21.3063 21.8924 22.0529zM23.8524 24.0596C23.4791 24.4329 22.9191 24.4329 22.5458 24.0596 22.1725 23.6862 22.1724 23.1262 22.5458 22.7529 22.7324 22.5663 22.9658 22.4729 23.1991 22.4729 23.4325 22.4729 23.6658 22.5663 23.8525 22.7529 24.2258 23.1263 24.2258 23.6863 23.8524 24.0596z" fill="#e3b873"/><path d="M27.6796 22.6129 19.2796 14.2129 22.593 10.8995 24.553 8.93954 27.3997 6.09289C28.193 5.29954 28.193 3.99289 27.3997 3.19954L25.0197.819539C24.6464.446242 24.133.212891 23.573.212891 23.013.212891 22.4996.446242 22.1264.819539L19.2797 3.66619 17.3197 5.62619 14.0064 8.93954 5.69965.632891C5.18629.119539 4.253.119539 3.73965.632891L.426348 3.94624C-.133652 4.45959-.133652 5.34624.426348 5.90624L1.40635 6.88624 4.06635 9.54624 6.67965 12.1595 8.733 14.2129 1.24157 21.7043C1.1019 21.7659 1.0266 21.8919.986348 22.0529L.00634766 27.6529C.00634766 27.8395.0529961 27.9795.146348 28.0729.239645 28.1662.332996 28.2129.472996 28.2129.519645 28.2129.519645 28.2129.566348 28.2129L5.95006 27.2176C5.9873 27.2274 6.0275 27.2329 6.073 27.2329 6.213 27.2329 6.353 27.1862 6.39965 27.0929L14.0063 19.4862 14.6129 20.0929 15.9196 21.3996 22.4064 27.8863C22.6397 28.1196 22.9197 28.2129 23.1997 28.2129 23.4797 28.2129 23.7597 28.1196 23.9464 27.8863L27.6797 24.1529C28.0997 23.7329 28.0996 23.0329 27.6796 22.6129zM6.073 26.0662 4.44014 24.4334 19.9559 8.9624 21.5664 10.5729 6.073 26.0662zM22.7796 1.47289C23.1996 1.05289 23.9463 1.05289 24.3663 1.47289L26.7463 3.85289C27.1663 4.27289 27.1663 5.01954 26.7463 5.43954L24.2263 7.95954 20.2596 3.99289 22.7796 1.47289zM19.6064 4.64624 21.5897 6.62959 23.573 8.61289 22.2664 9.91954 18.2997 5.95289 19.6064 4.64624zM8.98965 13.1629 9.993 12.1595C10.1796 11.9729 10.1796 11.6929 9.993 11.5062 9.80635 11.3195 9.52635 11.3195 9.33965 11.5062L8.3363 12.5095 7.65965 11.8329 9.293 10.1995C9.47965 10.0129 9.47965 9.73289 9.293 9.54619 9.10635 9.35948 8.82635 9.35954 8.63965 9.54619L7.00629 11.1795 6.35294 10.5262 7.33294 9.54619C7.51959 9.35954 7.51959 9.07954 7.33294 8.89284 7.14629 8.70613 6.86629 8.70619 6.67959 8.89284L5.69959 9.87284 5.04624 9.21948 6.67959 7.58613C6.86624 7.39948 6.86624 7.11948 6.67959 6.93278 6.49294 6.74608 6.21294 6.74613 6.02624 6.93278L4.393 8.56624 3.693 7.86624 4.673 6.88624C4.85965 6.69959 4.85965 6.41959 4.673 6.23289 4.48635 6.04619 4.20635 6.04624 4.01965 6.23289L3.03965 7.21289 2.38629 6.55954 4.01965 4.92619C4.20629 4.73954 4.20629 4.45954 4.01965 4.27284 3.833 4.08613 3.553 4.08619 3.36629 4.27284L1.733 5.90624 1.07964 5.25289C.892996 5.06624.892996 4.78624 1.07964 4.59954L4.393 1.28624C4.48635 1.19289 4.57965 1.14624 4.71965 1.14624 4.813 1.14624 4.953 1.19289 5.04629 1.28624L13.353 9.59289 9.38635 13.5595 8.98965 13.1629zM17.6464 6.65289 19.2792 8.28575 3.76349 23.7567 2.153 22.1462 17.6464 6.65289zM1.77965 23.0795 3.31068 24.6106C3.33397 24.6639 3.36793 24.7145 3.413 24.7595L5.09989 26.4464 1.0797 27.1395 1.77965 23.0795zM27.0264 23.4995 23.293 27.2329C23.2464 27.2795 23.1064 27.2795 23.0597 27.2329L18.2296 22.4029 19.8863 20.7462C20.0729 20.5596 20.0729 20.2796 19.8863 20.0929 19.6996 19.9062 19.4196 19.9062 19.2329 20.0929L17.5763 21.7495 16.8996 21.0729 17.8797 20.0929C18.0663 19.9062 18.0663 19.6262 17.8797 19.4395 17.693 19.2529 17.413 19.2529 17.2263 19.4395L16.2463 20.4195 15.5929 19.7662 17.2263 18.1328C17.4129 17.9462 17.4129 17.6662 17.2263 17.4795 17.0396 17.2928 16.7596 17.2928 16.5729 17.4795L14.9396 19.1129 14.6596 18.8329 18.6263 14.8662 27.0263 23.2662C27.073 23.3129 27.073 23.4529 27.0264 23.4995z" fill="#e3b873"/></svg>