<svg xmlns="http://www.w3.org/2000/svg" viewBox="0 0 512 512" width="32" height="32"><path fill="#e04f5f" d="M7.9 256C7.9 119 119 7.9 256 7.9 393 7.9 504.1 119 504.1 256c0 137-111.1 248.1-248.1 248.1C119 504.1 7.9 393 7.9 256z"/><path fill="#fff" d="M408.1 206.8 258 131.9c-1.3-.6-2.7-.6-4 0l-150.2 74.9c-1.7.8-2.7 2.4-2.7 4.3v29.6c0 1.6.8 3.1 2.2 4 1.4.9 3.1 1 4.5.3l148.2-74 148.1 74c.6.3 1.3.5 2 .5.9.0 1.8-.2 2.5-.7 1.4-.9 2.2-2.4 2.2-4V211C410.8 209.2 409.8 207.5 408.1 206.8z"/><path fill="#fff" d="M380.5 245.8 256 183.8l-124.5 62v115h69V272.6H248V360.8H380.5z"/><path fill="#ea4949" d="M263.7 272.6h32v32h-32z"/></svg>